<?xml version="1.0" standalone="no"?>
<!DOCTYPE svg PUBLIC "-//W3C//DTD SVG 20010904//EN"
 "http://www.w3.org/TR/2001/REC-SVG-20010904/DTD/svg10.dtd">
<svg version="1.0" xmlns="http://www.w3.org/2000/svg"
 width="1125.000000pt" height="1125.000000pt" viewBox="0 0 1125.000000 1125.000000"
 preserveAspectRatio="xMidYMid meet">

<g transform="translate(0.000000,1125.000000) scale(0.100000,-0.100000)"
fill="#000000" stroke="none">
<path d="M7298 7293 c-9 -10 -19 -36 -23 -58 -12 -70 -71 -177 -138 -251 -120
-133 -164 -275 -118 -378 29 -67 71 -117 136 -161 30 -21 56 -36 58 -34 1 2 7
18 13 34 13 42 40 42 122 1 38 -20 80 -36 93 -35 16 0 7 6 -24 15 -69 21 -146
71 -153 99 -18 72 31 84 127 30 35 -21 80 -39 99 -42 29 -4 26 0 -24 21 -141
60 -186 109 -151 162 14 22 22 25 48 20 18 -4 49 -18 71 -33 50 -33 135 -63
155 -55 10 4 2 9 -23 14 -52 11 -153 66 -177 96 -24 31 -24 64 -1 85 28 25 57
21 146 -22 89 -44 127 -53 134 -33 6 18 -72 89 -132 119 -56 29 -131 53 -163
53 -28 0 -28 0 2 59 28 53 43 161 31 224 -8 41 -47 87 -74 87 -10 0 -26 -8
-34 -17z"/>
<path d="M1800 7133 c-23 -9 -50 -44 -50 -63 0 -47 66 -91 246 -166 49 -20 90
-37 92 -39 2 -1 -17 0 -43 2 -43 5 -45 4 -45 -20 0 -30 61 -73 153 -108 65
-25 81 -46 72 -90 -8 -36 -44 -53 -91 -44 -51 9 -151 63 -179 96 -14 17 -25
25 -25 19 0 -23 53 -63 134 -101 86 -40 100 -56 85 -97 -13 -33 -60 -40 -124
-17 -12 4 -9 -1 8 -11 28 -20 37 -60 16 -81 -26 -26 103 -57 206 -51 117 8
177 51 251 184 48 85 58 174 25 216 -30 37 -79 49 -181 42 -74 -5 -89 -3 -117
15 -40 25 -51 62 -29 96 9 14 23 25 31 25 35 0 9 19 -82 59 -54 24 -141 63
-193 87 -103 46 -137 56 -160 47z"/>
<path d="M5540 7082 c-69 -32 -155 -71 -192 -87 -38 -16 -68 -32 -68 -35 0 -3
14 -13 30 -22 39 -22 41 -64 4 -99 -24 -22 -33 -24 -142 -25 -125 0 -151 -7
-178 -50 -51 -77 46 -292 162 -360 56 -33 163 -43 245 -24 72 17 94 29 80 43
-13 13 -15 67 -3 67 5 0 17 6 28 14 17 13 14 13 -23 3 -50 -13 -96 -1 -101 26
-9 44 7 64 65 86 72 27 153 85 152 109 0 14 -2 14 -10 -3 -25 -51 -180 -123
-238 -110 -34 7 -61 57 -44 84 5 9 52 37 105 63 91 45 137 86 123 108 -8 13
-61 13 -87 -1 -11 -6 -22 -9 -24 -6 -3 2 42 23 98 47 208 86 266 126 254 174
-18 74 -72 73 -236 -2z"/>
<path d="M2920 7053 c-14 -2 -47 -11 -73 -20 l-49 -15 22 -20 c37 -35 23 -59
-59 -100 -40 -20 -81 -44 -90 -54 -11 -12 -7 -11 15 4 17 11 54 30 83 41 84
34 131 25 131 -24 0 -29 -22 -46 -103 -80 -73 -30 -116 -59 -105 -70 4 -4 15
0 24 9 29 29 114 67 165 73 39 5 53 2 69 -12 44 -40 20 -72 -85 -114 -77 -31
-125 -63 -125 -84 0 -6 10 -1 23 10 30 28 71 48 140 68 53 15 60 15 82 1 19
-12 25 -25 25 -51 0 -39 -12 -50 -100 -86 -145 -59 -161 -119 -23 -85 79 19
134 46 202 97 l50 38 12 -37 c29 -91 152 -201 226 -202 19 0 63 41 63 60 0 4
-17 29 -38 56 -62 79 -84 135 -107 265 -42 248 -175 366 -375 332z"/>
<path d="M1320 6684 c-84 -28 -119 -61 -127 -123 -7 -55 18 -99 82 -145 61
-44 70 -74 36 -118 l-20 -24 -93 13 c-211 31 -383 -28 -536 -184 -59 -61 -128
-155 -134 -184 -2 -8 -6 -16 -9 -19 -4 -3 -18 -37 -32 -76 -36 -101 -50 -215
-45 -362 8 -209 68 -353 206 -494 37 -38 61 -68 55 -68 -6 0 -33 -17 -61 -37
-146 -111 -253 -320 -254 -494 -1 -123 43 -202 154 -277 l38 -25 -40 -19 c-22
-11 -40 -24 -40 -30 0 -5 -4 -7 -8 -4 -5 3 -26 -13 -47 -34 -34 -35 -39 -46
-42 -97 -6 -88 20 -123 131 -184 48 -27 111 -56 140 -64 205 -62 664 -60 846
3 140 49 233 121 280 217 21 44 24 64 25 160 0 105 -2 114 -33 178 -18 37 -45
75 -59 85 -14 9 -37 28 -51 41 -43 40 -112 79 -176 100 -93 31 -215 41 -503
41 -145 0 -263 3 -263 6 0 3 9 41 20 84 52 204 99 236 285 196 144 -32 292
-15 406 45 117 63 238 186 296 304 111 223 109 562 -4 777 -33 62 -154 218
-171 218 -4 0 -22 14 -40 31 l-33 30 64 70 c128 140 162 271 89 346 -48 50
-102 88 -150 105 -44 16 -148 23 -182 12z m206 -39 c130 -65 115 -210 -40
-373 l-71 -74 35 -30 c152 -130 220 -226 270 -383 32 -99 40 -325 15 -443 -46
-230 -184 -416 -369 -502 -140 -65 -238 -75 -402 -39 -104 22 -140 19 -189
-14 -40 -28 -41 -29 -75 -135 -40 -122 -39 -151 2 -183 l33 -24 340 -6 c369
-6 386 -9 505 -69 64 -33 130 -100 148 -152 38 -108 33 -238 -11 -327 -88
-176 -351 -262 -762 -248 -327 11 -505 74 -536 189 -22 82 18 143 133 203 32
17 58 33 58 36 0 3 -18 14 -41 24 -52 24 -112 82 -141 137 -30 58 -32 197 -4
278 61 177 131 275 255 357 l54 36 -65 63 c-36 35 -64 64 -61 64 3 0 -7 14
-21 31 -37 43 -91 162 -110 240 -55 224 -11 501 106 681 59 91 167 192 246
232 125 62 242 79 395 55 l71 -11 28 31 c34 38 36 75 6 101 -103 88 -118 107
-118 148 0 95 52 131 186 132 65 0 89 -4 130 -25z"/>
<path d="M1058 6075 c-16 -9 -38 -35 -50 -58 -23 -41 -23 -48 -26 -477 -2
-239 0 -450 3 -468 9 -47 67 -102 108 -102 49 0 80 21 105 70 22 44 22 48 22
480 0 270 -4 449 -11 472 -21 79 -91 117 -151 83z m134 -72 c9 -20 13 -151 16
-451 3 -364 1 -430 -13 -477 -16 -56 -37 -78 -87 -90 -52 -13 -53 -2 -53 475
0 397 2 439 18 482 32 81 96 114 119 61z"/>
<path d="M753 4000 c-81 -49 -74 -132 14 -173 43 -20 68 -22 249 -25 220 -4
290 4 371 44 44 21 54 31 64 64 10 33 9 43 -5 65 -9 14 -28 30 -42 35 -14 6
-158 10 -322 10 -277 0 -299 -1 -329 -20z m685 -66 c9 -87 -157 -132 -448
-121 -187 7 -214 14 -218 50 -5 37 13 64 56 87 35 18 55 19 322 17 l285 -2 3
-31z"/>
<path d="M1878 6605 c6 -11 21 -29 34 -40 22 -19 22 -19 -2 10 -40 48 -43 51
-32 30z"/>
<path d="M5619 6583 l-24 -28 28 24 c15 14 27 26 27 28 0 8 -8 1 -31 -24z"/>
<path d="M10350 6598 c-25 -5 -214 -45 -419 -89 -206 -44 -377 -81 -379 -83
-2 -2 -4 -33 -6 -67 -5 -145 -112 -249 -253 -249 -105 1 -195 61 -234 156 -21
50 -26 55 -49 50 -14 -3 -173 -37 -355 -75 -448 -96 -506 -109 -512 -115 -3
-3 9 -74 26 -158 18 -84 52 -250 77 -368 25 -118 49 -237 54 -265 5 -27 19
-93 31 -145 12 -52 29 -135 39 -185 10 -49 27 -134 39 -187 11 -54 22 -108 25
-121 26 -146 69 -373 78 -417 7 -30 13 -62 14 -71 6 -65 50 -265 69 -314 l23
-60 48 1 c27 0 92 10 144 21 52 12 106 24 120 27 14 2 108 23 210 46 187 41
384 84 650 140 115 25 166 41 245 80 121 59 157 88 238 193 108 139 357 562
357 606 0 5 6 11 13 14 6 2 9 7 6 11 -12 13 -38 -6 -89 -67 -29 -34 -98 -111
-155 -172 -137 -147 -165 -178 -165 -186 0 -3 -11 -11 -24 -19 -22 -11 -28 -9
-70 25 l-45 38 19 26 c10 14 45 54 77 88 32 35 73 82 92 106 19 23 51 54 72
67 20 14 102 71 181 128 78 57 150 107 158 112 25 14 15 110 -29 300 -22 96
-49 218 -60 270 -70 349 -198 920 -206 919 -5 -1 -30 -5 -55 -11z m-1825 -597
c4 -22 15 -50 26 -62 21 -25 24 -40 9 -55 -6 -6 1 -55 19 -139 16 -72 35 -159
42 -195 6 -36 21 -80 32 -98 23 -39 16 -50 -33 -54 -34 -3 -35 -2 -52 52 -9
30 -33 134 -53 230 -20 96 -40 177 -44 180 -17 11 -20 55 -4 72 8 9 18 38 20
63 7 56 29 60 38 6z m1243 -74 c6 -7 21 -58 32 -113 12 -54 26 -109 32 -121
14 -29 3 -43 -37 -43 -38 0 -34 -9 -65 133 -20 90 -40 127 -40 75 0 -36 33
-183 42 -186 4 -2 8 -12 8 -22 0 -12 -10 -19 -37 -23 -22 -4 -40 -2 -44 4 -3
6 -16 60 -29 120 -20 100 -30 123 -44 101 -6 -9 32 -179 46 -209 14 -29 13
-30 -46 -38 -44 -7 -48 -6 -43 9 8 19 -28 208 -45 243 -15 30 -6 37 47 38 24
1 51 7 60 15 12 10 24 11 43 4 21 -7 30 -6 44 8 21 21 61 24 76 5z m-611 -12
c16 -11 27 -40 43 -112 12 -54 26 -108 33 -121 14 -30 -5 -45 -50 -38 -20 3
-36 -1 -44 -10 -13 -16 -56 -18 -78 -5 -17 11 -39 96 -33 128 2 13 22 36 43
51 29 20 39 34 39 55 0 17 -5 27 -15 27 -10 0 -15 -10 -15 -30 0 -23 -5 -31
-24 -36 -32 -8 -46 2 -46 30 0 31 20 55 55 65 45 14 68 13 92 -4z m293 2 c0
-20 -21 -37 -46 -37 -31 0 -41 20 -19 37 24 17 65 17 65 0z m15 -59 c3 -13 14
-66 25 -118 11 -52 26 -105 32 -118 14 -26 1 -40 -39 -43 -13 -1 -29 -2 -35
-3 -7 -1 -12 8 -11 19 3 28 -37 217 -49 232 -16 20 -2 41 29 46 15 2 31 5 35
6 4 0 10 -9 13 -21z m-94 -35 c13 -36 2 -66 -22 -60 -11 3 -19 0 -19 -7 0 -30
38 -184 51 -204 17 -27 7 -38 -48 -47 l-43 -7 0 33 c0 46 -40 228 -57 262 -17
34 -16 36 31 44 24 4 36 2 36 -6 0 -6 9 -2 20 9 24 24 37 19 51 -17z m-373
-76 c7 -18 12 -39 12 -45 0 -19 -24 -14 -43 9 -33 37 -32 10 1 -34 62 -83 85
-129 90 -177 4 -41 1 -49 -18 -63 -13 -9 -27 -14 -32 -11 -5 3 -15 1 -23 -6
-11 -9 -17 -6 -29 12 -8 13 -18 35 -21 51 -6 21 -4 27 9 27 9 0 21 -9 28 -20
12 -18 38 -28 38 -14 0 3 -25 40 -55 81 -65 89 -84 145 -63 183 10 17 23 25
41 25 15 -1 27 3 27 7 0 22 28 4 38 -25z m-173 -19 c27 -12 31 -25 61 -158 25
-116 26 -115 -21 -115 -22 0 -46 -6 -54 -13 -7 -7 -28 -12 -45 -10 -35 3 -55
34 -63 100 -5 36 -3 42 40 82 36 33 45 48 40 64 -7 29 -23 28 -23 -1 0 -29
-18 -47 -47 -47 -51 0 -36 71 20 95 40 18 59 18 92 3z m399 -124 c3 -9 6 -24
6 -33 0 -10 9 -28 20 -41 21 -25 26 -46 10 -52 -13 -4 63 -348 86 -386 21 -37
18 -41 -29 -49 -34 -5 -37 -3 -51 28 -12 28 -46 176 -82 362 -3 15 -9 27 -14
27 -17 0 -16 48 2 70 10 12 18 37 18 56 0 36 23 48 34 18z m456 -49 c10 -12
27 -76 67 -251 4 -17 -1 -22 -28 -28 -18 -3 -36 -3 -40 1 -4 5 -19 56 -32 116
-24 108 -31 126 -44 113 -8 -7 22 -164 39 -209 13 -33 13 -33 -33 -42 l-36 -7
-22 99 c-30 134 -37 152 -46 131 -6 -14 20 -150 40 -215 6 -19 2 -22 -37 -30
-41 -8 -43 -8 -46 17 -6 55 -43 216 -54 237 -15 29 -8 35 44 38 24 1 55 8 69
15 19 8 32 9 45 2 15 -8 25 -6 43 9 28 23 54 24 71 4z m-300 -111 c0 -18 -43
-39 -64 -31 -25 10 -19 27 16 42 36 14 48 12 48 -11z m-412 -46 c7 -7 12 -27
12 -45 0 -30 -2 -33 -24 -27 l-24 6 20 -94 c12 -51 25 -94 29 -96 11 -4 12
-29 2 -35 -5 -3 -28 -8 -52 -12 -42 -7 -44 -6 -38 15 6 25 -36 229 -49 239
-21 14 -11 31 20 37 19 3 39 3 44 0 5 -3 15 1 22 9 15 18 22 19 38 3z m424 0
c3 -7 16 -65 28 -128 13 -63 27 -116 32 -118 22 -9 4 -32 -32 -42 -44 -12 -64
-6 -56 16 7 18 -33 215 -46 231 -15 18 -3 41 24 46 41 8 46 7 50 -5z m-597
-33 c0 -13 -8 -21 -24 -23 -32 -5 -48 12 -31 33 18 22 55 15 55 -10z m1521
-42 c26 -38 54 -74 63 -81 14 -12 14 -15 -8 -33 -13 -10 -32 -19 -42 -19 -10
0 -19 -7 -19 -15 0 -22 -45 -48 -70 -40 -60 19 -77 88 -35 145 19 25 22 37 14
47 -18 21 -32 15 -25 -11 7 -27 -25 -62 -49 -53 -18 8 -20 47 -2 69 18 24 79
58 104 58 15 0 35 -20 69 -67z m-1168 35 c23 -25 42 -69 42 -97 0 -14 -10 -20
-39 -25 -22 -3 -42 -9 -44 -14 -2 -4 1 -27 7 -52 8 -35 16 -45 31 -45 15 0 21
8 23 33 2 24 8 32 23 32 15 0 19 -7 19 -32 0 -65 -73 -101 -128 -62 -49 34
-81 154 -59 222 20 60 86 81 125 40z m-441 -4 c7 -19 -13 -34 -44 -34 -16 0
-23 6 -23 19 0 31 56 44 67 15z m116 -56 c3 -13 16 -68 27 -123 12 -55 27
-106 33 -113 14 -17 0 -29 -45 -37 -26 -5 -38 -4 -38 4 0 7 -10 3 -22 -9 -48
-45 -78 -13 -101 106 -10 49 -25 102 -33 118 -18 34 -10 45 38 52 l34 6 24
-111 c21 -102 33 -132 46 -118 9 8 -27 180 -42 204 -18 29 -18 31 9 36 52 10
65 7 70 -15z m1306 -95 c5 -21 13 -56 17 -78 3 -22 11 -46 17 -53 14 -18 4
-24 -39 -26 l-38 -1 -16 74 c-8 41 -21 76 -28 79 -7 2 -12 -3 -12 -12 0 -28
22 -121 31 -130 5 -6 9 -13 9 -18 0 -9 -70 -29 -80 -23 -4 3 -13 33 -20 68
-12 67 -25 96 -36 85 -10 -10 16 -132 29 -140 19 -11 -3 -25 -52 -33 -38 -6
-43 -5 -38 9 8 21 -20 158 -35 167 -17 10 25 29 66 29 19 0 38 5 42 11 4 7 22
9 45 6 26 -3 42 0 50 9 6 8 26 14 45 14 30 0 34 -4 43 -37z m-504 -195 c21
-101 45 -200 53 -221 8 -21 12 -40 9 -44 -3 -3 -27 -8 -52 -10 l-45 -6 2 34
c2 43 -59 334 -79 373 -17 33 -10 43 32 49 17 2 33 5 36 6 3 0 23 -81 44 -181z
m180 140 c7 -7 22 -60 34 -116 12 -57 25 -112 31 -121 6 -12 5 -22 -2 -29 -15
-15 -55 -15 -63 -1 -5 7 -14 3 -26 -10 -20 -21 -44 -26 -73 -15 -20 8 -50 106
-41 136 4 13 25 39 47 59 32 28 39 40 34 57 -10 31 -26 27 -26 -7 0 -29 -14
-41 -50 -41 -24 0 -34 33 -20 60 24 45 124 62 155 28z m-725 -130 c1 -7 1 -80
0 -163 -1 -173 -8 -195 -64 -195 -19 0 -37 6 -40 13 -3 6 -3 -8 0 -33 4 -25
13 -57 20 -72 8 -15 14 -31 14 -36 0 -14 -82 -25 -90 -13 -3 6 -13 3 -23 -9
-20 -23 -50 -26 -66 -6 -14 17 -32 85 -61 231 -12 61 -26 114 -31 119 -5 6 -9
18 -9 27 0 21 69 37 80 19 4 -6 20 -73 35 -148 32 -157 42 -189 55 -176 5 5
-2 56 -16 124 -14 63 -27 127 -31 143 -3 15 -10 30 -14 33 -5 3 -9 14 -9 24 0
14 10 21 36 26 19 3 39 3 43 -2 5 -5 19 -60 32 -121 13 -62 27 -113 31 -113 5
0 8 5 8 11 0 7 11 9 29 6 l29 -6 -55 127 c-31 70 -59 129 -64 130 -11 5 -12
29 -1 36 5 3 28 8 52 12 41 7 43 6 37 -15 -3 -13 4 -44 18 -74 l24 -52 0 57
c1 31 -3 60 -9 63 -16 10 -12 33 8 38 29 8 32 7 32 -5z m190 -13 c7 -8 9 -26
5 -43 -4 -21 -1 -33 11 -43 26 -22 54 -90 54 -134 0 -52 -31 -103 -67 -111
-49 -10 -57 -14 -47 -24 5 -5 28 -5 57 2 39 8 52 7 72 -6 30 -20 41 -59 26
-92 -30 -67 -202 -73 -177 -7 4 9 -1 32 -11 50 -17 32 -17 35 -1 63 14 24 14
31 4 37 -44 26 -64 158 -32 207 9 15 30 29 46 33 34 6 34 7 18 32 -23 37 14
70 42 36z m272 -155 c15 -74 32 -143 38 -152 18 -32 11 -47 -24 -54 -19 -3
-40 -3 -45 1 -6 3 -18 -1 -27 -9 -8 -9 -27 -16 -40 -16 -32 0 -44 29 -73 170
-12 58 -26 113 -31 122 -18 32 -11 46 26 53 20 3 38 4 41 1 3 -2 17 -63 33
-136 27 -130 34 -149 47 -136 9 8 -36 244 -48 252 -15 9 -10 32 9 37 9 3 28 4
41 4 23 -2 26 -9 53 -137z"/>
<path d="M9105 5791 c-6 -10 -1 -48 11 -93 3 -10 10 -18 16 -18 7 0 9 18 5 52
-7 54 -20 78 -32 59z"/>
<path d="M8783 5558 c6 -51 20 -78 33 -65 10 10 -16 117 -28 117 -7 0 -9 -18
-5 -52z"/>
<path d="M10237 5277 c-7 -18 31 -77 49 -77 20 0 18 9 -12 52 -30 43 -30 43
-37 25z"/>
<path d="M9085 5309 c7 -34 21 -57 29 -48 9 9 -10 73 -23 77 -10 3 -11 -4 -6
-29z"/>
<path d="M9747 5034 c-18 -18 4 -124 25 -124 7 0 8 18 4 52 -8 57 -18 82 -29
72z"/>
<path d="M9210 4883 c1 -10 18 -87 31 -136 13 -48 33 -39 24 12 -19 104 -27
131 -41 131 -8 0 -14 -3 -14 -7z"/>
<path d="M9290 4573 c-32 -6 -47 -20 -34 -33 14 -14 84 7 84 25 0 15 -5 16
-50 8z"/>
<path d="M1940 6546 c0 -3 9 -10 20 -16 11 -6 20 -8 20 -6 0 3 -9 10 -20 16
-11 6 -20 8 -20 6z"/>
<path d="M9303 6378 l-83 -20 0 -60 c0 -44 3 -57 13 -52 10 6 174 121 187 131
5 4 -22 23 -30 22 -3 -1 -42 -10 -87 -21z"/>
<path d="M4308 6271 c-31 -10 -91 -41 -133 -69 l-75 -50 0 28 c0 23 -5 30 -28
35 -15 3 -32 16 -37 28 -10 22 -12 22 -291 25 -243 2 -283 0 -294 -13 -18 -21
-5 -31 15 -11 14 14 51 16 281 16 l264 0 10 -26 c6 -14 10 -61 10 -106 l0 -80
58 59 c118 122 215 166 362 167 83 0 101 -3 145 -26 66 -34 108 -80 142 -153
l28 -60 5 -807 5 -807 30 -31 c27 -28 30 -39 33 -106 3 -42 0 -80 -6 -86 -5
-5 -102 -9 -242 -8 -259 1 -238 -5 -283 75 l-22 40 -5 795 c-4 582 -8 800 -17
815 -31 54 -123 59 -193 10 l-40 -28 0 -737 0 -737 40 -42 c38 -40 40 -45 40
-105 0 -42 -5 -67 -14 -75 -9 -8 -104 -11 -327 -9 l-314 3 -3 71 c-3 72 -3 72
35 108 l38 35 5 801 c3 440 2 813 -3 830 -4 17 -20 37 -38 47 -31 18 -36 31
-42 98 -3 28 -4 21 -5 -22 -2 -58 0 -64 26 -80 54 -35 52 11 49 -855 l-2 -807
-36 -36 c-41 -40 -54 -82 -43 -151 7 -46 24 -64 63 -64 12 0 21 -7 21 -15 0
-13 39 -15 283 -16 155 -1 298 0 317 1 53 2 64 19 61 97 -2 65 -4 70 -42 108
l-39 41 0 730 0 730 41 26 c50 33 97 44 112 29 9 -9 13 -227 17 -809 4 -582 8
-804 17 -823 18 -41 73 -99 93 -99 10 0 25 -7 34 -15 13 -13 52 -16 246 -16
173 0 235 3 247 12 11 10 14 29 11 85 -3 63 -7 75 -36 108 l-32 37 0 763 c0
507 -4 782 -11 821 -19 104 -66 176 -164 250 -22 16 -43 29 -47 27 -5 -1 -8 2
-8 7 0 5 -21 16 -47 25 -63 22 -192 20 -265 -3z"/>
<path d="M5040 6268 c-60 -17 -70 -33 -70 -109 0 -71 10 -91 51 -104 11 -4 24
-18 30 -32 5 -14 9 -346 9 -819 l0 -795 -35 -20 c-41 -25 -48 -44 -47 -129 1
-70 14 -90 59 -90 14 0 23 -6 23 -15 0 -8 6 -15 13 -15 177 -4 639 0 646 5 12
7 15 133 5 160 -4 8 -19 22 -35 30 -19 10 -32 28 -38 53 -7 24 -11 337 -11
922 1 828 0 885 -16 897 -10 7 -23 13 -29 13 -5 0 -15 10 -20 23 -8 18 -21 23
-70 28 -94 11 -426 8 -465 -3z m512 -19 c17 -9 18 -53 18 -925 l0 -915 34 -20
c43 -25 59 -68 53 -141 l-4 -53 -329 0 -329 0 0 79 c0 68 3 80 19 90 11 6 30
21 43 33 l23 22 0 786 c0 866 1 845 -60 866 -30 11 -30 11 -30 90 l0 78 38 10
c20 5 51 12 67 15 50 8 438 -5 457 -15z"/>
<path d="M6985 6266 c-54 -20 -65 -39 -65 -108 0 -51 4 -62 26 -82 67 -60 74
-65 74 -46 0 5 -18 21 -40 35 l-40 25 0 71 0 70 38 17 c32 15 70 17 268 15
150 -1 239 -5 253 -12 l21 -12 0 -914 0 -915 39 -26 c21 -14 42 -35 45 -47 8
-32 7 -120 -2 -134 -12 -19 -642 -19 -653 -1 -22 34 -1 168 25 168 7 0 22 10
34 23 l22 23 0 797 c0 438 -3 797 -7 797 -5 0 -7 -354 -5 -786 3 -845 4 -823
-46 -838 -28 -9 -42 -49 -42 -121 0 -69 14 -95 52 -95 11 0 26 -7 32 -15 10
-14 55 -16 329 -16 175 0 322 3 327 6 6 3 10 40 10 81 0 78 -1 81 -64 132 -14
12 -16 102 -16 922 0 813 -2 910 -16 924 -8 9 -20 16 -25 16 -6 0 -20 12 -33
27 l-23 26 -239 4 c-194 3 -247 1 -279 -11z"/>
<path d="M1917 6252 c-13 -14 -17 -38 -17 -94 0 -79 8 -95 63 -122 l22 -12 5
-799 c5 -793 5 -801 27 -865 28 -81 78 -134 177 -189 160 -88 302 -72 478 55
43 30 49 32 54 17 15 -48 25 -61 51 -67 15 -4 35 -14 44 -22 13 -12 66 -15
288 -15 150 -1 275 2 279 6 4 4 7 40 7 82 l0 75 -43 36 -42 37 0 895 c0 492
-3 905 -6 918 -4 12 -17 25 -31 28 -13 4 -29 17 -33 30 l-10 24 -285 0 -285 0
-16 -25 c-13 -20 -15 -38 -9 -90 6 -60 9 -67 46 -96 l39 -31 0 -733 c0 -804 4
-753 -57 -776 -47 -18 -70 -11 -82 22 -8 22 -11 279 -11 840 0 721 -2 809 -16
823 -8 9 -24 16 -34 16 -12 0 -20 8 -22 23 l-3 22 -281 3 c-262 2 -282 1 -297
-16z m573 -827 c4 -592 8 -837 16 -855 38 -82 132 -99 198 -36 l36 33 0 717
c0 786 3 751 -60 796 -29 20 -30 25 -30 95 0 67 2 73 23 79 29 8 521 8 541 0
14 -6 16 -96 16 -917 l0 -910 44 -47 c25 -27 46 -46 48 -45 2 2 2 -30 0 -71
l-4 -74 -278 0 c-212 0 -281 3 -287 13 -4 6 -10 50 -13 96 l-5 83 -62 -50
c-145 -116 -227 -153 -355 -161 -47 -4 -84 -3 -81 2 2 4 -3 7 -12 7 -24 0 -86
35 -123 70 -39 37 -55 67 -78 145 -16 55 -18 127 -21 851 l-4 792 -30 12 c-45
19 -59 46 -59 115 0 33 4 65 8 71 12 19 45 21 312 20 l255 -1 5 -830z"/>
<path d="M5881 6256 c-10 -12 -33 -137 -82 -448 -13 -88 -8 -102 42 -113 17
-4 33 -13 36 -21 6 -17 97 -19 138 -4 28 11 51 55 100 193 33 94 63 141 94
145 18 3 22 0 17 -15 -3 -10 -46 -184 -96 -388 -183 -745 -273 -1113 -310
-1260 -41 -161 -40 -175 10 -175 18 0 30 -6 32 -16 3 -14 51 -16 462 -15 252
0 460 2 462 3 1 2 20 120 42 263 41 268 41 285 1 285 -11 0 -23 10 -29 24 -5
13 -18 27 -29 31 -24 7 -107 -3 -133 -17 -24 -12 -51 -67 -78 -158 -27 -91
-63 -165 -85 -174 -34 -13 -57 -7 -50 12 5 18 218 871 375 1505 39 158 68 292
65 297 -3 6 -19 10 -34 10 -22 0 -27 4 -27 23 l1 22 -456 3 c-382 2 -458 0
-468 -12z m910 0 c2 -3 -100 -425 -228 -938 -128 -513 -232 -936 -233 -940 0
-14 109 -9 145 6 41 17 62 56 100 181 36 118 48 141 86 154 43 15 118 14 124
-1 6 -14 -68 -514 -76 -522 -7 -7 -900 -9 -907 -2 -3 3 0 23 6 43 7 21 48 184
92 363 43 179 122 499 174 712 53 213 98 397 100 410 3 13 23 95 46 183 22 87
40 161 40 162 0 8 -113 1 -134 -8 -31 -14 -67 -80 -104 -191 -47 -139 -70
-162 -161 -156 -40 3 -46 6 -49 27 -2 13 13 132 34 264 34 211 41 240 59 248
20 8 878 13 886 5z"/>
<path d="M10650 4999 c0 -5 5 -7 10 -4 6 3 10 8 10 11 0 2 -4 4 -10 4 -5 0
-10 -5 -10 -11z"/>
<path d="M3416 3873 c-3 -21 -13 -101 -21 -178 -23 -206 -22 -204 -50 -211
-45 -11 -26 -24 35 -24 62 0 71 5 46 24 -13 9 -13 29 -3 143 7 73 15 134 18
137 3 3 25 -39 49 -92 25 -53 58 -125 75 -160 l30 -62 44 102 c25 57 58 132
75 168 l31 65 6 -45 c4 -25 10 -93 14 -152 7 -96 6 -108 -9 -108 -9 0 -16 -4
-16 -10 0 -6 30 -10 70 -10 40 0 70 4 70 10 0 6 -9 10 -19 10 -11 0 -23 5 -26
10 -5 8 -55 381 -55 413 0 19 -19 4 -31 -25 -7 -18 -43 -100 -80 -182 l-68
-150 -46 100 c-25 54 -62 136 -83 181 -20 45 -40 82 -44 83 -3 0 -9 -17 -12
-37z"/>
<path d="M4520 3903 c-100 -3 -112 -5 -90 -16 l25 -13 3 -192 2 -192 -25 -10
c-14 -5 -25 -12 -25 -15 0 -3 60 -5 133 -5 l133 0 17 48 c24 66 22 68 -21 22
-37 -38 -42 -40 -100 -40 l-62 0 0 90 0 90 54 0 c45 0 58 -4 70 -22 15 -21 16
-20 16 32 0 55 -1 55 -18 32 -15 -20 -26 -23 -68 -20 l-49 3 0 90 0 90 65 0
c58 0 66 -2 75 -22 15 -35 25 -28 25 17 0 35 -3 40 -22 38 -13 -1 -75 -4 -138
-5z"/>
<path d="M7260 3713 c-84 -200 -102 -233 -127 -233 -7 0 -13 -4 -13 -10 0 -6
28 -10 65 -10 37 0 65 4 65 10 0 6 -7 10 -15 10 -21 0 -19 29 6 84 l20 47 81
-3 81 -3 20 -54 c20 -51 20 -54 3 -66 -15 -11 -7 -14 54 -17 40 -1 74 -1 76 1
2 3 -8 10 -24 17 -24 10 -38 34 -97 175 -37 90 -75 183 -84 207 -9 23 -18 42
-21 42 -3 0 -44 -89 -90 -197z m117 15 l30 -83 -33 -3 c-19 -2 -49 -2 -68 0
l-34 3 31 83 c17 45 34 82 38 82 3 0 20 -37 36 -82z"/>
<path d="M5283 3888 l27 -10 -2 -196 -3 -196 -25 -7 c-52 -13 10 -21 138 -17
105 3 134 8 168 26 83 43 119 112 112 218 -5 78 -41 136 -107 171 -41 21 -56
23 -190 22 -111 0 -139 -3 -118 -11z m242 -19 c158 -44 167 -309 12 -368 -16
-6 -62 -11 -103 -11 l-74 0 0 188 c0 104 3 192 7 195 10 11 114 8 158 -4z"/>
<path d="M6249 3882 c26 -13 51 -44 98 -122 60 -101 63 -107 63 -173 0 -72
-11 -107 -35 -107 -8 0 -15 -4 -15 -10 0 -6 30 -10 70 -10 40 0 70 4 70 10 0
6 -7 10 -15 10 -24 0 -35 34 -35 106 0 66 1 70 66 173 66 104 79 120 119 133
11 3 -16 6 -60 6 -44 0 -73 -2 -63 -5 9 -2 18 -10 21 -16 5 -13 -83 -176 -95
-177 -3 0 -26 38 -50 86 -42 83 -42 85 -24 100 18 13 11 14 -65 14 l-84 0 34
-18z"/>
</g>
</svg>
